<?xml version="1.0" encoding="utf-8"?>
<!-- Generator: Adobe Illustrator 22.0.1, SVG Export Plug-In . SVG Version: 6.00 Build 0)  -->
<svg version="1.1" id="Layer_1" xmlns="http://www.w3.org/2000/svg" xmlns:xlink="http://www.w3.org/1999/xlink" x="0px" y="0px"
	 viewBox="0 0 762 250.9" style="enable-background:new 0 0 762 250.9;" xml:space="preserve">
<style type="text/css">
	.st0{fill:none;stroke:#000000;stroke-width:3;stroke-linecap:round;stroke-linejoin:round;stroke-miterlimit:10;}
	.st1{fill:none;stroke:#000000;stroke-width:0.5;stroke-linecap:round;stroke-linejoin:round;stroke-miterlimit:10;}
	.st2{fill:none;stroke:#000000;stroke-width:0.75;stroke-linecap:round;stroke-linejoin:round;stroke-miterlimit:10;}
	.st3{fill:none;stroke:#000000;stroke-width:5;stroke-linecap:round;stroke-linejoin:round;stroke-miterlimit:10;}
	.st4{fill:#7F3F98;}
	.st5{font-family:'Loew-Heavy';}
	.st6{font-size:15px;}
	.st7{font-size:13px;}
	.st8{font-size:27.8375px;}
	.st9{font-size:13.9187px;}
	.st10{font-size:8.9773px;}
	.st11{font-size:8px;}
	.st12{font-size:18.2729px;}
	.st13{font-size:9.1364px;}
	.st14{font-size:20px;}
	.st15{font-size:10px;}
	.st16{font-size:16px;}
	.st17{fill:#FFFFFF;}
	.st18{font-size:4.3391px;}
</style>
<rect x="416.5" y="143.6" width="100.7" height="84.8"/>
<rect x="509.5" y="153.1" width="157.8" height="94.2"/>
<rect x="589.1" y="143.5" width="26.5" height="11.6"/>
<rect x="664.6" y="185.7" width="94.9" height="62.7"/>
<rect x="720.7" y="111.7" width="37.4" height="76.2"/>
<polygon points="124.7,62.8 85.2,62.8 70.7,62.8 70.7,4.3 124.7,4.3 "/>
<polygon points="124.7,62.8 122.4,107.8 109.2,109.6 109.2,101.8 85.5,102.4 72.8,61.9 "/>
<g>
	<polyline class="st0" points="70.8,36 70.8,58.8 93.4,130.8 127.3,130.8 127.3,125.5 155.2,125.5 	"/>
	<polyline class="st0" points="164.8,125.2 169.9,125.2 169.9,130.6 246.4,130.6 246.4,125 251.8,125 	"/>
	<polyline class="st0" points="260.1,125.3 292.2,125.3 292.2,122.9 305.8,122.9 305.8,4.1 	"/>
	<line class="st0" x1="198.7" y1="177.5" x2="309.3" y2="160.6"/>
	<line class="st0" x1="321.1" y1="159.2" x2="321.1" y2="226.9"/>
	<polyline class="st0" points="330.8,160.4 370.1,160.4 370.1,142.7 401.8,142.7 	"/>
	<path class="st0" d="M416.6,227.6"/>
	<path class="st0" d="M427.9,143.7"/>
	<polyline class="st0" points="517.8,248.6 517.8,143.6 416.5,143.6 416.5,228 	"/>
	<polyline class="st0" points="517.9,153.5 589.1,153.5 589.1,143.5 615.4,143.5 615.4,153.1 667.3,153.1 667.3,245.7 	"/>
	<line class="st0" x1="667.3" y1="153.1" x2="667.3" y2="143.3"/>
	<line class="st0" x1="641.6" y1="152.8" x2="641.6" y2="142.5"/>
	<line class="st0" x1="563.6" y1="152.6" x2="563.6" y2="142.8"/>
	<line class="st0" x1="667.1" y1="186.4" x2="758.7" y2="186.4"/>
	<polyline class="st0" points="720.7,186.2 720.7,111.7 741.4,111.7 720.7,111.7 714.4,111.7 	"/>
	<polyline class="st0" points="703.4,35.4 703.4,115.5 698.9,115.5 698.9,99.3 703.2,99.3 	"/>
	<polyline class="st0" points="689.6,99 681.8,99 681.8,114.8 662.8,114.8 662.8,102.9 617.3,102.9 617.3,114.3 610.3,114.3 
		610.3,98.5 602,98.5 	"/>
	<polyline class="st0" points="591.9,5.9 591.9,113.5 578.5,111.8 578.5,107.6 571.7,107.6 	"/>
	<line class="st0" x1="561.7" y1="108" x2="561.7" y2="6.3"/>
	<polyline class="st0" points="550.6,94 542.2,94 542.2,109.2 530.8,109.2 530.8,93.9 484.8,93.9 484.8,110.5 	"/>
	<polyline class="st0" points="474.7,94.1 465.5,94.1 465.5,4.5 	"/>
	<line class="st0" x1="456.8" y1="89.6" x2="465.7" y2="89.6"/>
	<polyline class="st0" points="447.6,89.3 447.6,93.9 393.1,93.9 393.1,109.3 	"/>
	<line class="st0" x1="384.5" y1="98.7" x2="392.9" y2="98.7"/>
	<line class="st0" x1="447.6" y1="93.9" x2="447.6" y2="111.7"/>
	<polyline class="st0" points="38.5,121.4 21.3,121.4 21.3,140.1 47.8,141.9 54.6,168.6 	"/>
</g>
<line class="st0" x1="364.5" y1="160.7" x2="364.5" y2="229.4"/>
<polyline class="st0" points="305.6,79.1 354.5,79.1 354.5,109.3 306.1,109.3 "/>
<line class="st0" x1="372.6" y1="107.5" x2="372.6" y2="3.4"/>
<line class="st0" x1="372.4" y1="40.3" x2="305.2" y2="40.3"/>
<line class="st0" x1="355" y1="40.4" x2="355" y2="67.9"/>
<polyline class="st0" points="123.9,3.5 123.9,109.6 109.2,109.6 109.2,101.8 84.7,101.8 "/>
<polyline class="st0" points="722.4,57.7 722.4,85.2 703.4,85.2 "/>
<line class="st1" x1="723.2" y1="83.1" x2="741.6" y2="83.1"/>
<line class="st1" x1="722.7" y1="80.3" x2="742.9" y2="80.3"/>
<line class="st1" x1="722.4" y1="77.9" x2="743.9" y2="77.9"/>
<line class="st1" x1="722.7" y1="75.5" x2="743" y2="75.5"/>
<line class="st1" x1="722.7" y1="72.9" x2="743" y2="72.9"/>
<path class="st1" d="M722.3,70.8"/>
<line class="st1" x1="722.5" y1="70.4" x2="742.8" y2="70.4"/>
<line class="st1" x1="722.2" y1="67.8" x2="743.9" y2="67.8"/>
<line class="st1" x1="722.4" y1="65.1" x2="741.8" y2="65.1"/>
<line class="st1" x1="722.7" y1="62.8" x2="744.4" y2="62.8"/>
<line class="st1" x1="722.9" y1="60.2" x2="742.5" y2="60.2"/>
<path class="st0" d="M723.4,57.5"/>
<line class="st1" x1="722.4" y1="57.7" x2="742" y2="57.7"/>
<line class="st1" x1="702.9" y1="57.6" x2="722.5" y2="57.6"/>
<line class="st1" x1="702.6" y1="60" x2="722.2" y2="60"/>
<line class="st1" x1="702.8" y1="62.7" x2="722.4" y2="62.7"/>
<line class="st1" x1="702.6" y1="65.2" x2="722.2" y2="65.2"/>
<line class="st1" x1="702.6" y1="67.9" x2="722.2" y2="67.9"/>
<line class="st1" x1="703.2" y1="70.4" x2="722.8" y2="70.4"/>
<line class="st1" x1="703.4" y1="72.8" x2="723" y2="72.8"/>
<line class="st1" x1="703.4" y1="75.4" x2="723" y2="75.4"/>
<line class="st1" x1="702.9" y1="77.9" x2="722.5" y2="77.9"/>
<line class="st1" x1="702.8" y1="80.3" x2="722.4" y2="80.3"/>
<line class="st1" x1="702.7" y1="82.7" x2="722.3" y2="82.7"/>
<path class="st2" d="M33.8,104.1"/>
<line class="st2" x1="33.8" y1="121.6" x2="33.8" y2="102.9"/>
<line class="st2" x1="31.1" y1="103.5" x2="31.1" y2="121"/>
<line class="st2" x1="28.7" y1="121" x2="28.7" y2="102.2"/>
<line class="st2" x1="26" y1="102.8" x2="26" y2="120.8"/>
<line class="st2" x1="23.5" y1="121" x2="23.5" y2="102.7"/>
<line class="st2" x1="21" y1="103.3" x2="21" y2="122.4"/>
<line class="st2" x1="22.7" y1="140.3" x2="21.3" y2="164.3"/>
<line class="st2" x1="25.3" y1="140.7" x2="23.8" y2="164.2"/>
<line class="st2" x1="27.5" y1="141.4" x2="26.2" y2="165.6"/>
<line class="st2" x1="30.3" y1="141.6" x2="28.5" y2="166.1"/>
<line class="st2" x1="32.7" y1="141" x2="31.3" y2="165.7"/>
<line class="st2" x1="35.3" y1="142" x2="33.8" y2="165.3"/>
<line class="st2" x1="37.4" y1="141.7" x2="36.4" y2="166"/>
<line class="st2" x1="39.8" y1="141.7" x2="38.6" y2="167"/>
<line class="st2" x1="42.7" y1="142.3" x2="41" y2="166.7"/>
<line class="st2" x1="45.2" y1="142.7" x2="43.6" y2="166.6"/>
<line class="st2" x1="47.6" y1="143.5" x2="45.8" y2="167.7"/>
<line class="st2" x1="49.5" y1="148.5" x2="48.2" y2="167.1"/>
<line class="st2" x1="575.3" y1="89.9" x2="591.7" y2="89.9"/>
<line class="st2" x1="575.2" y1="87.3" x2="591.6" y2="87.2"/>
<line class="st2" x1="575.7" y1="85.2" x2="591.5" y2="85.2"/>
<line class="st2" x1="575.3" y1="82.8" x2="592.1" y2="82.8"/>
<line class="st2" x1="575.6" y1="80.4" x2="591" y2="80.4"/>
<line class="st2" x1="575.2" y1="77.6" x2="592" y2="77.6"/>
<line class="st2" x1="575.2" y1="75.1" x2="591.7" y2="75.1"/>
<line class="st2" x1="575.1" y1="72.4" x2="591.5" y2="72.4"/>
<line class="st2" x1="575.1" y1="70" x2="592.1" y2="70"/>
<line class="st2" x1="575" y1="67.5" x2="591.9" y2="67.5"/>
<line class="st2" x1="575.2" y1="65.2" x2="592" y2="65.2"/>
<line class="st2" x1="575.2" y1="62.3" x2="591.9" y2="62.3"/>
<line class="st2" x1="575" y1="51.4" x2="592.5" y2="51.4"/>
<line class="st2" x1="575.2" y1="48.7" x2="592" y2="48.7"/>
<line class="st2" x1="575.1" y1="46.2" x2="592.1" y2="46.2"/>
<line class="st2" x1="575.1" y1="43.9" x2="591.8" y2="43.9"/>
<line class="st2" x1="575.1" y1="41.2" x2="591.9" y2="41.2"/>
<line class="st2" x1="575.1" y1="38.5" x2="590.9" y2="38.5"/>
<line class="st2" x1="575.2" y1="36" x2="591.1" y2="36"/>
<line class="st2" x1="575.1" y1="33.3" x2="591" y2="33.3"/>
<line class="st2" x1="575.1" y1="30.7" x2="592.2" y2="30.7"/>
<line class="st2" x1="575.1" y1="28.1" x2="592.2" y2="28.1"/>
<line class="st2" x1="575.3" y1="25.9" x2="592.4" y2="25.9"/>
<line class="st2" x1="575" y1="23.5" x2="592.3" y2="23.5"/>
<line class="st0" x1="575" y1="92.5" x2="575" y2="21.5"/>
<polygon id="Outside_1_" class="st3" points="69.9,5.6 88.7,5.6 88.7,2.5 704.3,2.5 704.3,36.9 742.9,36.9 742.9,110.7 759.5,110.7 
	759.5,248.4 507.6,248.4 507.6,229.7 198.5,229.7 198.5,178.8 2.5,163.8 2.5,102 36.5,102 36.5,35.2 70.8,35.2 "/>
<text transform="matrix(0.583 0 0 0.583 311.6753 97.3771)" class="st4 st5 st6">Elevator</text>
<text transform="matrix(0.583 0 0 0.583 329.7505 194.5825)"><tspan x="0" y="0" class="st4 st5 st6">Men’s</tspan><tspan x="-10.7" y="11.4" class="st4 st5 st7">Bathroom</tspan></text>
<text transform="matrix(0.583 0 0 0.583 369.5839 194.5826)"><tspan x="0" y="0" class="st4 st5 st6">Women’s</tspan><tspan x="2.5" y="11.4" class="st4 st5 st7">Bathroom</tspan></text>
<text transform="matrix(1 0 0 1 140.7249 49.8177)"><tspan x="0" y="0" class="st4 st5 st8">Ceremony</tspan><tspan x="45.2" y="27.8" class="st4 st5 st8">Hall</tspan><tspan x="57.3" y="41.8" class="st4 st5 st9">(101)</tspan></text>
<text transform="matrix(1 0 0 1 308.2587 53.7935)"><tspan x="0" y="0" class="st4 st5 st10">Hardware</tspan><tspan x="13.6" y="9" class="st4 st5 st10">Lab</tspan><tspan x="12.3" y="17" class="st4 st5 st11">(106)</tspan></text>
<text transform="matrix(1 0 0 1 394.3851 43.4042)"><tspan x="0" y="0" class="st4 st5 st12">Staff</tspan><tspan x="1.5" y="18.3" class="st4 st5 st12">Only</tspan><tspan x="13.4" y="27.4" class="st4 st5 st13">(110)</tspan></text>
<text transform="matrix(1 0 0 1 472.317 42.7031)"><tspan x="0" y="0" class="st4 st5 st14">Hacking</tspan><tspan x="10.6" y="20" class="st4 st5 st14">Space</tspan><tspan x="31.3" y="30" class="st4 st5 st15">(112)</tspan></text>
<text transform="matrix(1 0 0 1 606.136 42.7029)"><tspan x="0" y="0" class="st4 st5 st14">Hacking</tspan><tspan x="10.6" y="20" class="st4 st5 st14">Space</tspan><tspan x="30.3" y="30" class="st4 st5 st15">(125)</tspan></text>
<text transform="matrix(1 0 0 1 205.5029 200.6065)"><tspan x="0" y="0" class="st4 st5 st16">Food &amp; Snack</tspan><tspan x="44" y="10" class="st4 st5 st15">(102)</tspan></text>
<g id="Table">
	<rect x="60.8" y="61" transform="matrix(0.9479 -0.3184 0.3184 0.9479 -18.8521 24.1381)" class="st4" width="7.2" height="17.4"/>
	<text transform="matrix(0.1856 0.5527 -0.5527 0.1856 61.2335 62.3784)" class="st17 st5 st18">Registration</text>
</g>
<g id="Table_1_">
	
		<rect x="66.6" y="78.3" transform="matrix(0.9479 -0.3184 0.3184 0.9479 -24.0297 26.8739)" class="st4" width="7.2" height="17.4"/>
	<text transform="matrix(0.1856 0.5527 -0.5527 0.1856 67.0127 79.5829)" class="st17 st5 st18">Registration</text>
</g>
<g id="Table_2_">
	
		<rect x="73.3" y="99.5" transform="matrix(0.9479 -0.3184 0.3184 0.9479 -30.429 30.1363)" class="st4" width="7.2" height="17.4"/>
	<text transform="matrix(0.1856 0.5527 -0.5527 0.1856 75.3567 105.4456)" class="st17 st5 st18">MLH</text>
</g>
<g id="Table_3_">
	
		<rect x="79.1" y="116.7" transform="matrix(0.9479 -0.3184 0.3184 0.9479 -35.6066 32.8721)" class="st4" width="7.2" height="17.4"/>
	<text transform="matrix(0.1856 0.5527 -0.5527 0.1856 81.135 122.6502)" class="st17 st5 st18">MLH</text>
</g>
<g id="Table_4_">
	
		<rect x="87.9" y="153.5" transform="matrix(7.628522e-02 -0.9971 0.9971 7.628522e-02 -77.1833 241.0448)" class="st4" width="7.2" height="17.4"/>
	<text transform="matrix(0.5813 4.447429e-02 -4.447429e-02 0.5813 86.1211 162.4349)" class="st17 st5 st18">Sponsor</text>
</g>
<g id="Table_5_">
	
		<rect x="106.8" y="155" transform="matrix(7.628522e-02 -0.9971 0.9971 7.628522e-02 -61.2173 261.299)" class="st4" width="7.2" height="17.4"/>
	<text transform="matrix(0.5813 4.447429e-02 -4.447429e-02 0.5813 105.0356 163.9449)" class="st17 st5 st18">Sponsor</text>
</g>
<g id="Table_6_">
	
		<rect x="125.7" y="156.5" transform="matrix(7.628522e-02 -0.9971 0.9971 7.628522e-02 -45.2512 281.553)" class="st4" width="7.2" height="17.4"/>
	<text transform="matrix(0.5813 4.447429e-02 -4.447429e-02 0.5813 123.9501 165.4548)" class="st17 st5 st18">Sponsor</text>
</g>
<g id="Table_7_">
	
		<rect x="144.6" y="158" transform="matrix(7.628522e-02 -0.9971 0.9971 7.628522e-02 -29.2852 301.8071)" class="st4" width="7.2" height="17.4"/>
	<text transform="matrix(0.5813 4.447429e-02 -4.447429e-02 0.5813 142.8647 166.9647)" class="st17 st5 st18">Sponsor</text>
</g>
<g id="Table_8_">
	
		<rect x="163.5" y="159.5" transform="matrix(7.628522e-02 -0.9971 0.9971 7.628522e-02 -13.3191 322.0612)" class="st4" width="7.2" height="17.4"/>
	<text transform="matrix(0.5813 4.447429e-02 -4.447429e-02 0.5813 161.7791 168.4746)" class="st17 st5 st18">Sponsor</text>
</g>
<g id="Table_9_">
	
		<rect x="182.5" y="161" transform="matrix(7.628522e-02 -0.9971 0.9971 7.628522e-02 2.647 342.3153)" class="st4" width="7.2" height="17.4"/>
	<text transform="matrix(0.5813 4.447429e-02 -4.447429e-02 0.5813 180.6935 169.9845)" class="st17 st5 st18">Sponsor</text>
</g>
</svg>
