<?xml version="1.0" encoding="utf-8"?>
<!-- Generator: Adobe Illustrator 22.0.1, SVG Export Plug-In . SVG Version: 6.00 Build 0)  -->
<svg version="1.1" id="Layer_1" xmlns="http://www.w3.org/2000/svg" xmlns:xlink="http://www.w3.org/1999/xlink" x="0px" y="0px"
	 viewBox="0 0 766.7 248" style="enable-background:new 0 0 766.7 248;" xml:space="preserve">
<style type="text/css">
	.st0{fill:none;stroke:#000000;stroke-width:5;stroke-linecap:round;stroke-linejoin:round;stroke-miterlimit:10;}
	.st1{stroke:#000000;stroke-miterlimit:10;}
	.st2{fill:none;stroke:#000000;stroke-width:3;stroke-linecap:round;stroke-linejoin:round;stroke-miterlimit:10;}
	.st3{fill:none;stroke:#000000;stroke-width:0.75;stroke-miterlimit:10;}
	.st4{fill:#7F3F98;}
	.st5{font-family:'Loew-Heavy';}
	.st6{font-size:20px;}
	.st7{font-size:10px;}
	.st8{font-size:14.8047px;}
	.st9{font-size:7.4023px;}
	.st10{font-size:10.1233px;}
	.st11{font-size:5.3991px;}
	.st12{font-size:8px;}
	.st13{font-size:8.9773px;}
	.st14{fill:#F26B21;}
</style>
<polygon id="Outside" class="st0" points="72.6,2.5 708.6,2.5 708.6,34 748.6,34 748.6,107.6 764.2,107.6 764.2,245.5 512.7,245.5 
	512.7,223.6 201.3,223.6 201.3,176.3 3,162.2 2.5,32.1 72.9,32.1 "/>
<rect x="726.8" y="108.5" width="37.4" height="137"/>
<rect x="705.3" y="142.6" width="26.2" height="102.5"/>
<rect x="680.9" y="207.9" width="28.6" height="37.2"/>
<polygon class="st1" points="118.2,128.5 111.2,168.1 200.6,174.1 203.5,128 "/>
<polyline class="st1" points="73.3,4.2 74.3,33 91.4,35.5 91.4,3.6 "/>
<rect x="89.6" y="3.3" width="37.5" height="64.2"/>
<line class="st2" x1="38.5" y1="34.1" x2="38.5" y2="68.7"/>
<line class="st2" x1="49.2" y1="68" x2="128.4" y2="68"/>
<line class="st2" x1="128.4" y1="3.4" x2="128.4" y2="103.1"/>
<line class="st2" x1="204.6" y1="103.9" x2="204.6" y2="90.5"/>
<line class="st2" x1="224.4" y1="90.2" x2="224.4" y2="2.4"/>
<path class="st2" d="M234.8,91"/>
<polyline class="st2" points="142.2,90.5 150,90.5 150,104.2 160.3,104.2 160.3,89.4 214.4,89.4 "/>
<polyline class="st2" points="234.8,91 243.3,91 243.3,105 254,105 254,90.2 290.7,90.2 290.7,109.7 310.2,109.7 310.2,105.2 
	358.9,105.2 358.9,74.7 297.2,74.7 297.2,2.5 "/>
<polyline class="st2" points="297.1,74.1 297.1,90.2 290.2,90.2 "/>
<line class="st2" x1="376.4" y1="104.5" x2="375.4" y2="2.5"/>
<polyline class="st2" points="453.9,89.7 406.1,89.7 406.1,105.1 395.8,105.1 395.8,89.9 "/>
<line class="st2" x1="388.4" y1="95.7" x2="395.2" y2="95.7"/>
<polyline class="st2" points="462.7,91.1 470.9,91.1 470.9,3.2 "/>
<polyline class="st2" points="480.5,90.3 535.6,90.3 535.6,104.5 546.4,104.5 546.4,90 "/>
<line class="st2" x1="565.9" y1="104" x2="565.9" y2="2.8"/>
<line class="st2" x1="556.8" y1="95" x2="565.9" y2="95"/>
<polyline class="st2" points="594,3.2 594,103.9 577.8,103.9 "/>
<polyline class="st2" points="606.4,95.5 614.9,95.5 614.9,112.6 686,112.6 686,94.9 694.9,94.9 "/>
<line class="st2" x1="708.3" y1="108.1" x2="708.3" y2="34"/>
<line class="st2" x1="720.3" y1="107.9" x2="748.6" y2="107.9"/>
<polyline class="st2" points="726.8,108.5 726.8,142.6 705.3,142.6 705.3,206.6 681.1,206.6 681.1,184.3 695.9,184.3 "/>
<line class="st2" x1="686.8" y1="171.3" x2="686.8" y2="142"/>
<line class="st2" x1="637.9" y1="138.2" x2="637.9" y2="242.9"/>
<polyline class="st2" points="628.1,148.7 547.1,148.7 547.1,137.6 536,137.6 536,149.1 526.8,149.1 "/>
<line class="st2" x1="592.4" y1="147.5" x2="592.4" y2="137.8"/>
<line class="st2" x1="512.7" y1="223.6" x2="512.7" y2="138"/>
<polyline class="st2" points="502.7,146.5 496.6,146.5 496.6,137.2 424.5,137.2 424.5,145.7 419.3,145.7 "/>
<line class="st2" x1="407.9" y1="137.8" x2="407.9" y2="223.4"/>
<polyline class="st2" points="392.9,138 392.9,144.9 359.8,144.9 359.8,137.6 344.5,137.6 "/>
<polyline class="st2" points="210.2,138.2 201.8,138.2 201.8,186.5 "/>
<polyline class="st2" points="110.2,168.3 113.9,144.7 117.2,127.2 204.7,127.2 204.7,138.2 "/>
<polyline class="st2" points="41.4,118.8 23.9,119.1 23.9,138.5 92.1,142.6 96.1,127.7 87,97.3 4.2,97.6 "/>
<polyline class="st2" points="89.9,67.4 89.9,33.6 72.7,33 "/>
<polyline class="st2" points="219.2,138 219.2,128.8 312.3,128.8 312.3,138.2 "/>
<polyline class="st2" points="323.1,138.2 328.3,138.2 328.3,222.2 "/>
<line class="st2" x1="681.1" y1="206.6" x2="681.1" y2="246.1"/>
<line class="st2" x1="579.3" y1="17.7" x2="579.3" y2="71.7"/>
<line class="st3" x1="23.9" y1="118.1" x2="23.9" y2="97.9"/>
<line class="st3" x1="26.6" y1="118.3" x2="26.6" y2="97.5"/>
<line class="st3" x1="29.3" y1="118.9" x2="29.3" y2="97.9"/>
<line class="st3" x1="31.5" y1="118.1" x2="31.5" y2="97.5"/>
<line class="st3" x1="33.9" y1="118.4" x2="33.9" y2="97.6"/>
<line class="st3" x1="36.5" y1="118.2" x2="36.5" y2="98.9"/>
<line class="st3" x1="25.5" y1="138.9" x2="24.2" y2="163.7"/>
<line class="st3" x1="28.1" y1="139.3" x2="26.6" y2="164.1"/>
<line class="st3" x1="30.5" y1="139.3" x2="29.3" y2="164.1"/>
<line class="st3" x1="33.2" y1="139.6" x2="31.6" y2="163.3"/>
<line class="st3" x1="35.6" y1="139.6" x2="33.8" y2="163.7"/>
<line class="st3" x1="38" y1="139.9" x2="36.4" y2="163"/>
<line class="st3" x1="40.6" y1="139.9" x2="39.1" y2="163.4"/>
<line class="st3" x1="42.9" y1="140.2" x2="41.6" y2="164.1"/>
<line class="st3" x1="45.3" y1="140.4" x2="44.3" y2="164.1"/>
<line class="st3" x1="48" y1="140.3" x2="46.9" y2="164.7"/>
<line class="st3" x1="50.5" y1="140.8" x2="49.2" y2="165.1"/>
<line class="st3" x1="53.2" y1="140.5" x2="51.4" y2="165"/>
<line class="st3" x1="55.4" y1="140.5" x2="54" y2="163.9"/>
<line class="st3" x1="57.9" y1="140.7" x2="56.2" y2="167.5"/>
<line class="st3" x1="60.5" y1="141.6" x2="58.9" y2="165.1"/>
<line class="st3" x1="63.1" y1="141.6" x2="61.3" y2="165.8"/>
<line class="st3" x1="65.6" y1="142.1" x2="64.1" y2="164.7"/>
<line class="st3" x1="68" y1="141.5" x2="66.3" y2="165.9"/>
<line class="st3" x1="580.1" y1="69.3" x2="593.9" y2="69.3"/>
<line class="st3" x1="579.8" y1="66.7" x2="594" y2="66.7"/>
<line class="st3" x1="579.8" y1="64.3" x2="593.9" y2="64.3"/>
<line class="st3" x1="580" y1="61.7" x2="594.3" y2="61.7"/>
<line class="st3" x1="580.2" y1="59.2" x2="594.1" y2="59.2"/>
<line class="st3" x1="579.8" y1="56.6" x2="593.9" y2="56.6"/>
<line class="st3" x1="580" y1="53.9" x2="595" y2="53.9"/>
<line class="st3" x1="580.2" y1="51.3" x2="594.9" y2="51.3"/>
<line class="st3" x1="580.1" y1="47.3" x2="594.2" y2="47.3"/>
<line class="st3" x1="579.7" y1="44.7" x2="594.2" y2="44.7"/>
<line class="st3" x1="580" y1="41.9" x2="593.5" y2="41.9"/>
<line class="st3" x1="580.1" y1="39.5" x2="593.9" y2="39.5"/>
<line class="st3" x1="579.8" y1="36.9" x2="593.6" y2="36.9"/>
<line class="st3" x1="580" y1="34.3" x2="594.1" y2="34.3"/>
<line class="st3" x1="579.6" y1="31.7" x2="593.4" y2="31.7"/>
<line class="st3" x1="579.8" y1="28.8" x2="593.8" y2="28.8"/>
<line class="st3" x1="579.9" y1="26.7" x2="594.1" y2="26.7"/>
<line class="st3" x1="579.6" y1="23.9" x2="593.7" y2="23.9"/>
<line class="st3" x1="579.8" y1="21.7" x2="594.3" y2="21.7"/>
<line class="st3" x1="579.6" y1="19" x2="594.8" y2="19"/>
<line class="st3" x1="578.6" y1="18.8" x2="565.9" y2="18.8"/>
<line class="st3" x1="566.6" y1="21.3" x2="579.2" y2="21.3"/>
<line class="st3" x1="579" y1="24" x2="566.2" y2="24"/>
<line class="st3" x1="566.5" y1="26.6" x2="579.3" y2="26.6"/>
<line class="st3" x1="578.7" y1="28.6" x2="566.3" y2="28.6"/>
<line class="st3" x1="566.5" y1="31.3" x2="579" y2="31.3"/>
<line class="st3" x1="578.5" y1="33.9" x2="566.2" y2="33.9"/>
<line class="st3" x1="708.5" y1="53.3" x2="748.8" y2="53.3"/>
<line class="st3" x1="709" y1="55.9" x2="748.2" y2="55.9"/>
<line class="st3" x1="709.2" y1="58.5" x2="749" y2="58.5"/>
<line class="st3" x1="709.2" y1="61.2" x2="748.7" y2="61.2"/>
<line class="st3" x1="709.1" y1="63.5" x2="747.8" y2="63.5"/>
<line class="st3" x1="709" y1="65.9" x2="748.5" y2="65.9"/>
<line class="st3" x1="709.2" y1="68.6" x2="749.2" y2="68.6"/>
<line class="st3" x1="747.7" y1="71.1" x2="707.7" y2="71.1"/>
<line class="st3" x1="708.7" y1="74.1" x2="747.2" y2="74.1"/>
<line class="st3" x1="747.7" y1="76.4" x2="708.6" y2="76.4"/>
<line class="st3" x1="708.9" y1="78.9" x2="749" y2="78.9"/>
<line class="st3" x1="724.2" y1="81.6" x2="708.9" y2="81.6"/>
<line class="st2" x1="365.5" y1="145" x2="365.5" y2="223.6"/>
<line class="st2" x1="725.5" y1="84.9" x2="725.5" y2="52.7"/>
<text transform="matrix(1 0 0 1 135.6891 37.862)"><tspan x="0" y="0" class="st4 st5 st6">Hacking</tspan><tspan x="10.6" y="20" class="st4 st5 st6">Space</tspan><tspan x="29.8" y="30" class="st4 st5 st7">(201)</tspan></text>
<text transform="matrix(1 0 0 1 232.0021 39.9714)"><tspan x="0" y="0" class="st4 st5 st8">Resting</tspan><tspan x="6.7" y="14.8" class="st4 st5 st8">Room</tspan><tspan x="19.3" y="22.2" class="st4 st5 st9">(205)</tspan></text>
<text transform="matrix(1 0 0 1 223.8235 173.7804)"><tspan x="0" y="0" class="st4 st5 st6">Hacking</tspan><tspan x="10.6" y="20" class="st4 st5 st6">Space</tspan><tspan x="28.6" y="30" class="st4 st5 st7">(204)</tspan></text>
<text transform="matrix(1 0 0 1 382.9811 37.8619)"><tspan x="0" y="0" class="st4 st5 st6">Hacking</tspan><tspan x="10.6" y="20" class="st4 st5 st6">Space</tspan><tspan x="28.8" y="30" class="st4 st5 st7">(203)</tspan></text>
<text transform="matrix(1 0 0 1 304.8086 39.9716)"><tspan x="0" y="0" class="st4 st5 st8">Hacking</tspan><tspan x="7.9" y="14.8" class="st4 st5 st8">Space</tspan><tspan x="21.1" y="22.2" class="st4 st5 st9">(204)</tspan></text>
<text transform="matrix(1 0 0 1 418.0196 173.7798)"><tspan x="0" y="0" class="st4 st5 st6">Hacking</tspan><tspan x="10.6" y="20" class="st4 st5 st6">Space</tspan><tspan x="30.1" y="30" class="st4 st5 st7">(218)</tspan></text>
<text transform="matrix(1 0 0 1 477.2839 37.8618)"><tspan x="0" y="0" class="st4 st5 st6">Hacking</tspan><tspan x="10.6" y="20" class="st4 st5 st6">Space</tspan><tspan x="31.3" y="30" class="st4 st5 st7">(211)</tspan></text>
<text transform="matrix(1 0 0 1 331.3743 182.6286)"><tspan x="0" y="0" class="st4 st5 st10">Men’s</tspan><tspan x="1.4" y="5.4" class="st4 st5 st11">Bathroom</tspan></text>
<text transform="matrix(1 0 0 1 368.019 181.7256)"><tspan x="0" y="0" class="st4 st5 st12">Women’s</tspan><tspan x="5.3" y="5.4" class="st4 st5 st11">Bathroom</tspan></text>
<text transform="matrix(1 0 0 1 8.9996 81.256)"><tspan x="0" y="0" class="st4 st5 st13">Distraction</tspan><tspan x="10" y="9" class="st4 st5 st13">Corner</tspan></text>
<polygon id="Outside_1_" class="st0" points="72.6,2.5 708.6,2.5 708.6,34 748.6,34 748.6,107.6 764.2,107.6 764.2,245.5 
	512.7,245.5 512.7,223.6 201.3,223.6 201.3,176.3 3,162.2 2.5,32.1 72.9,32.1 "/>
<rect x="726.8" y="108.5" width="37.4" height="137"/>
<rect x="705.3" y="142.6" width="26.2" height="102.5"/>
<rect x="680.9" y="207.9" width="28.6" height="37.2"/>
<polygon class="st1" points="118.2,128.5 111.2,168.1 200.6,174.1 203.5,128 "/>
<polyline class="st1" points="73.3,4.2 74.3,33 91.4,35.5 91.4,3.6 "/>
<rect x="89.6" y="3.3" width="37.5" height="64.2"/>
<line class="st2" x1="38.5" y1="34.1" x2="38.5" y2="68.7"/>
<line class="st2" x1="49.2" y1="68" x2="128.4" y2="68"/>
<line class="st2" x1="128.4" y1="3.4" x2="128.4" y2="103.1"/>
<line class="st2" x1="204.6" y1="103.9" x2="204.6" y2="90.5"/>
<line class="st2" x1="224.4" y1="90.2" x2="224.4" y2="2.4"/>
<path class="st2" d="M234.8,91"/>
<polyline class="st2" points="142.2,90.5 150,90.5 150,104.2 160.3,104.2 160.3,89.4 214.4,89.4 "/>
<polyline class="st2" points="234.8,91 243.3,91 243.3,105 254,105 254,90.2 290.7,90.2 290.7,109.7 310.2,109.7 310.2,105.2 
	358.9,105.2 358.9,74.7 297.2,74.7 297.2,2.5 "/>
<polyline class="st2" points="297.1,74.1 297.1,90.2 290.2,90.2 "/>
<line class="st2" x1="376.4" y1="104.5" x2="375.4" y2="2.5"/>
<polyline class="st2" points="453.9,89.7 406.1,89.7 406.1,105.1 395.8,105.1 395.8,89.9 "/>
<line class="st2" x1="388.4" y1="95.7" x2="395.2" y2="95.7"/>
<polyline class="st2" points="462.7,91.1 470.9,91.1 470.9,3.2 "/>
<polyline class="st2" points="480.5,90.3 535.6,90.3 535.6,104.5 546.4,104.5 546.4,90 "/>
<line class="st2" x1="565.9" y1="104" x2="565.9" y2="2.8"/>
<line class="st2" x1="556.8" y1="95" x2="565.9" y2="95"/>
<polyline class="st2" points="594,3.2 594,103.9 577.8,103.9 "/>
<polyline class="st2" points="606.4,95.5 614.9,95.5 614.9,112.6 686,112.6 686,94.9 694.9,94.9 "/>
<line class="st2" x1="708.3" y1="108.1" x2="708.3" y2="34"/>
<line class="st2" x1="720.3" y1="107.9" x2="748.6" y2="107.9"/>
<polyline class="st2" points="726.8,108.5 726.8,142.6 705.3,142.6 705.3,206.6 681.1,206.6 681.1,184.3 695.9,184.3 "/>
<line class="st2" x1="686.8" y1="171.3" x2="686.8" y2="142"/>
<line class="st2" x1="637.9" y1="138.2" x2="637.9" y2="242.9"/>
<polyline class="st2" points="628.1,148.7 547.1,148.7 547.1,137.6 536,137.6 536,149.1 526.8,149.1 "/>
<line class="st2" x1="592.4" y1="147.5" x2="592.4" y2="137.8"/>
<line class="st2" x1="512.7" y1="223.6" x2="512.7" y2="138"/>
<polyline class="st2" points="502.7,146.5 496.6,146.5 496.6,137.2 424.5,137.2 424.5,145.7 419.3,145.7 "/>
<line class="st2" x1="407.9" y1="137.8" x2="407.9" y2="223.4"/>
<polyline class="st2" points="392.9,138 392.9,144.9 359.8,144.9 359.8,137.6 344.5,137.6 "/>
<polyline class="st2" points="210.2,138.2 201.8,138.2 201.8,186.5 "/>
<polyline class="st2" points="110.2,168.3 113.9,144.7 117.2,127.2 204.7,127.2 204.7,138.2 "/>
<polyline class="st2" points="41.4,118.8 23.9,119.1 23.9,138.5 92.1,142.6 96.1,127.7 87,97.3 4.2,97.6 "/>
<polyline class="st2" points="89.9,67.4 89.9,33.6 72.7,33 "/>
<polyline class="st2" points="219.2,138 219.2,128.8 312.3,128.8 312.3,138.2 "/>
<polyline class="st2" points="323.1,138.2 328.3,138.2 328.3,222.2 "/>
<line class="st2" x1="681.1" y1="206.6" x2="681.1" y2="246.1"/>
<line class="st2" x1="579.3" y1="17.7" x2="579.3" y2="71.7"/>
<line class="st3" x1="23.9" y1="118.1" x2="23.9" y2="97.9"/>
<line class="st3" x1="26.6" y1="118.3" x2="26.6" y2="97.5"/>
<line class="st3" x1="29.3" y1="118.9" x2="29.3" y2="97.9"/>
<line class="st3" x1="31.5" y1="118.1" x2="31.5" y2="97.5"/>
<line class="st3" x1="33.9" y1="118.4" x2="33.9" y2="97.6"/>
<line class="st3" x1="36.5" y1="118.2" x2="36.5" y2="98.9"/>
<line class="st3" x1="25.5" y1="138.9" x2="24.2" y2="163.7"/>
<line class="st3" x1="28.1" y1="139.3" x2="26.6" y2="164.1"/>
<line class="st3" x1="30.5" y1="139.3" x2="29.3" y2="164.1"/>
<line class="st3" x1="33.2" y1="139.6" x2="31.6" y2="163.3"/>
<line class="st3" x1="35.6" y1="139.6" x2="33.8" y2="163.7"/>
<line class="st3" x1="38" y1="139.9" x2="36.4" y2="163"/>
<line class="st3" x1="40.6" y1="139.9" x2="39.1" y2="163.4"/>
<line class="st3" x1="42.9" y1="140.2" x2="41.6" y2="164.1"/>
<line class="st3" x1="45.3" y1="140.4" x2="44.3" y2="164.1"/>
<line class="st3" x1="48" y1="140.3" x2="46.9" y2="164.7"/>
<line class="st3" x1="50.5" y1="140.8" x2="49.2" y2="165.1"/>
<line class="st3" x1="53.2" y1="140.5" x2="51.4" y2="165"/>
<line class="st3" x1="55.4" y1="140.5" x2="54" y2="163.9"/>
<line class="st3" x1="57.9" y1="140.7" x2="56.2" y2="167.5"/>
<line class="st3" x1="60.5" y1="141.6" x2="58.9" y2="165.1"/>
<line class="st3" x1="63.1" y1="141.6" x2="61.3" y2="165.8"/>
<line class="st3" x1="65.6" y1="142.1" x2="64.1" y2="164.7"/>
<line class="st3" x1="68" y1="141.5" x2="66.3" y2="165.9"/>
<line class="st3" x1="580.1" y1="69.3" x2="593.9" y2="69.3"/>
<line class="st3" x1="579.8" y1="66.7" x2="594" y2="66.7"/>
<line class="st3" x1="579.8" y1="64.3" x2="593.9" y2="64.3"/>
<line class="st3" x1="580" y1="61.7" x2="594.3" y2="61.7"/>
<line class="st3" x1="580.2" y1="59.2" x2="594.1" y2="59.2"/>
<line class="st3" x1="579.8" y1="56.6" x2="593.9" y2="56.6"/>
<line class="st3" x1="580" y1="53.9" x2="595" y2="53.9"/>
<line class="st3" x1="580.2" y1="51.3" x2="594.9" y2="51.3"/>
<line class="st3" x1="580.1" y1="47.3" x2="594.2" y2="47.3"/>
<line class="st3" x1="579.7" y1="44.7" x2="594.2" y2="44.7"/>
<line class="st3" x1="580" y1="41.9" x2="593.5" y2="41.9"/>
<line class="st3" x1="580.1" y1="39.5" x2="593.9" y2="39.5"/>
<line class="st3" x1="579.8" y1="36.9" x2="593.6" y2="36.9"/>
<line class="st3" x1="580" y1="34.3" x2="594.1" y2="34.3"/>
<line class="st3" x1="579.6" y1="31.7" x2="593.4" y2="31.7"/>
<line class="st3" x1="579.8" y1="28.8" x2="593.8" y2="28.8"/>
<line class="st3" x1="579.9" y1="26.7" x2="594.1" y2="26.7"/>
<line class="st3" x1="579.6" y1="23.9" x2="593.7" y2="23.9"/>
<line class="st3" x1="579.8" y1="21.7" x2="594.3" y2="21.7"/>
<line class="st3" x1="579.6" y1="19" x2="594.8" y2="19"/>
<line class="st3" x1="578.6" y1="18.8" x2="565.9" y2="18.8"/>
<line class="st3" x1="566.6" y1="21.3" x2="579.2" y2="21.3"/>
<line class="st3" x1="579" y1="24" x2="566.2" y2="24"/>
<line class="st3" x1="566.5" y1="26.6" x2="579.3" y2="26.6"/>
<line class="st3" x1="578.7" y1="28.6" x2="566.3" y2="28.6"/>
<line class="st3" x1="566.5" y1="31.3" x2="579" y2="31.3"/>
<line class="st3" x1="578.5" y1="33.9" x2="566.2" y2="33.9"/>
<line class="st3" x1="708.5" y1="53.3" x2="748.8" y2="53.3"/>
<line class="st3" x1="709" y1="55.9" x2="748.2" y2="55.9"/>
<line class="st3" x1="709.2" y1="58.5" x2="749" y2="58.5"/>
<line class="st3" x1="709.2" y1="61.2" x2="748.7" y2="61.2"/>
<line class="st3" x1="709.1" y1="63.5" x2="747.8" y2="63.5"/>
<line class="st3" x1="709" y1="65.9" x2="748.5" y2="65.9"/>
<line class="st3" x1="709.2" y1="68.6" x2="749.2" y2="68.6"/>
<line class="st3" x1="747.7" y1="71.1" x2="707.7" y2="71.1"/>
<line class="st3" x1="708.7" y1="74.1" x2="747.2" y2="74.1"/>
<line class="st3" x1="747.7" y1="76.4" x2="708.6" y2="76.4"/>
<line class="st3" x1="708.9" y1="78.9" x2="749" y2="78.9"/>
<line class="st3" x1="724.2" y1="81.6" x2="708.9" y2="81.6"/>
<line class="st2" x1="365.5" y1="145" x2="365.5" y2="223.6"/>
<line class="st2" x1="725.5" y1="84.9" x2="725.5" y2="52.7"/>
<text transform="matrix(1 0 0 1 135.6891 37.862)"><tspan x="0" y="0" class="st14 st5 st6">Hacking</tspan><tspan x="10.6" y="20" class="st14 st5 st6">Space</tspan><tspan x="29.8" y="30" class="st14 st5 st7">(201)</tspan></text>
<text transform="matrix(1 0 0 1 232.0021 39.9714)"><tspan x="0" y="0" class="st14 st5 st8">Resting</tspan><tspan x="6.7" y="14.8" class="st14 st5 st8">Room</tspan><tspan x="19.3" y="22.2" class="st14 st5 st9">(205)</tspan></text>
<text transform="matrix(1 0 0 1 223.8235 173.7804)"><tspan x="0" y="0" class="st14 st5 st6">Hacking</tspan><tspan x="10.6" y="20" class="st14 st5 st6">Space</tspan><tspan x="28.6" y="30" class="st14 st5 st7">(204)</tspan></text>
<text transform="matrix(1 0 0 1 382.9811 37.8619)"><tspan x="0" y="0" class="st14 st5 st6">Hacking</tspan><tspan x="10.6" y="20" class="st14 st5 st6">Space</tspan><tspan x="28.8" y="30" class="st14 st5 st7">(203)</tspan></text>
<text transform="matrix(1 0 0 1 304.8086 39.9716)"><tspan x="0" y="0" class="st14 st5 st8">Hacking</tspan><tspan x="7.9" y="14.8" class="st14 st5 st8">Space</tspan><tspan x="21.1" y="22.2" class="st14 st5 st9">(204)</tspan></text>
<text transform="matrix(1 0 0 1 418.0196 173.7798)"><tspan x="0" y="0" class="st14 st5 st6">Hacking</tspan><tspan x="10.6" y="20" class="st14 st5 st6">Space</tspan><tspan x="30.1" y="30" class="st14 st5 st7">(218)</tspan></text>
<text transform="matrix(1 0 0 1 477.2839 37.8618)"><tspan x="0" y="0" class="st14 st5 st6">Hacking</tspan><tspan x="10.6" y="20" class="st14 st5 st6">Space</tspan><tspan x="31.3" y="30" class="st14 st5 st7">(211)</tspan></text>
<text transform="matrix(1 0 0 1 331.3743 182.6286)"><tspan x="0" y="0" class="st14 st5 st10">Men’s</tspan><tspan x="1.4" y="5.4" class="st14 st5 st11">Bathroom</tspan></text>
<text transform="matrix(1 0 0 1 368.019 181.7256)"><tspan x="0" y="0" class="st14 st5 st12">Women’s</tspan><tspan x="5.3" y="5.4" class="st14 st5 st11">Bathroom</tspan></text>
<text transform="matrix(1 0 0 1 8.9996 81.256)"><tspan x="0" y="0" class="st14 st5 st13">Distraction</tspan><tspan x="10" y="9" class="st14 st5 st13">Corner</tspan></text>
</svg>
